<?xml version="1.0" standalone="no"?>
<!DOCTYPE svg PUBLIC "-//W3C//DTD SVG 20010904//EN"
 "http://www.w3.org/TR/2001/REC-SVG-20010904/DTD/svg10.dtd">
<svg version="1.0" xmlns="http://www.w3.org/2000/svg"
 width="700.000000pt" height="700.000000pt" viewBox="0 0 700.000000 700.000000"
 preserveAspectRatio="xMidYMid meet">
<metadata>
Created by potrace 1.11, written by Peter Selinger 2001-2013
</metadata>
<g transform="translate(0.000000,700.000000) scale(0.100000,-0.100000)"
fill="#000000" stroke="none">
<path d="M1963 6220 c-44 -10 -61 -26 -74 -70 -9 -30 -8 -43 5 -71 13 -28 33
-42 108 -79 167 -79 289 -230 334 -410 14 -55 17 -133 18 -518 l1 -452 -35
-11 c-55 -18 -198 -96 -270 -147 -36 -25 -96 -77 -135 -114 -38 -37 -70 -68
-70 -68 -1 0 -1 36 -2 80 l-1 80 109 108 c59 61 111 121 115 136 15 62 -32
126 -93 126 -34 0 -93 -27 -93 -42 0 -4 -8 -12 -18 -17 -18 -10 -19 2 -19 307
0 328 -2 349 -42 379 -25 18 -77 25 -102 13 -48 -22 -61 -54 -62 -151 -1 -49
-2 -89 -4 -89 -2 0 -31 27 -65 60 -33 33 -69 61 -80 61 -10 1 -24 2 -30 3 -21
3 -66 -22 -82 -46 -21 -29 -20 -77 1 -108 10 -14 72 -79 138 -146 l121 -121 1
-392 c0 -215 -1 -391 -3 -391 -2 0 -29 32 -60 71 -118 148 -237 244 -353 285
-36 13 -73 24 -81 24 -13 0 -15 63 -14 507 1 440 3 517 18 573 46 180 166 329
329 408 113 56 143 102 110 169 -30 64 -97 69 -204 15 -239 -122 -399 -334
-444 -592 -13 -72 -14 -116 -15 -610 l-1 -505 -61 -35 c-76 -44 -226 -188
-291 -280 -64 -91 -197 -311 -197 -325 0 -1 -20 -45 -44 -96 -129 -275 -242
-650 -281 -929 -3 -25 -8 -56 -10 -70 -2 -14 -7 -56 -10 -95 -4 -38 -9 -83
-11 -100 -6 -48 -5 -343 1 -425 15 -191 73 -395 147 -516 84 -140 245 -250
410 -283 102 -20 124 -22 263 -28 77 -3 142 -7 145 -10 2 -2 5 -72 5 -154 l0
-149 -452 0 c-304 0 -460 -4 -476 -11 -28 -13 -57 -58 -57 -89 0 -31 27 -77
53 -92 17 -10 742 -12 3432 -13 1998 -1 3421 3 3438 8 66 22 89 110 43 164
l-24 28 -256 3 -256 3 0 184 0 185 48 0 c175 0 332 83 397 210 20 40 43 106
62 181 12 50 11 355 -2 441 -7 47 -16 95 -19 105 -3 10 -7 29 -10 43 -21 116
-81 290 -146 424 l-48 98 62 77 c100 124 155 235 197 399 19 71 23 114 23 232
1 144 -5 186 -45 318 -69 231 -252 453 -477 580 -93 53 -299 123 -334 114 -3
-1 -24 29 -47 67 -51 86 -161 204 -239 256 -60 40 -61 40 -72 105 -42 243
-190 482 -390 633 -261 196 -625 255 -933 151 l-67 -23 -55 84 c-59 89 -122
151 -183 181 -48 24 -132 26 -184 6 -85 -34 -191 -159 -276 -327 -80 -161
-214 -552 -253 -745 -5 -24 -16 -69 -23 -100 -16 -59 -43 -186 -51 -235 -9
-58 -16 -90 -20 -93 -1 -2 -29 10 -61 26 -212 104 -444 146 -676 120 l-48 -5
0 116 c0 315 -8 779 -13 801 -4 14 -10 41 -13 60 -11 54 -67 181 -110 246 -75
114 -221 243 -326 288 -95 41 -104 43 -135 36z m2153 -422 c62 -72 136 -214
204 -390 35 -91 45 -107 75 -123 64 -35 146 10 148 81 1 16 -11 61 -25 99 -43
115 -43 112 -6 124 98 31 168 40 283 36 140 -4 187 -13 292 -56 218 -90 371
-251 458 -484 l25 -67 -32 8 c-18 4 -78 8 -133 9 -234 4 -450 -87 -609 -255
-38 -41 -68 -65 -70 -58 -2 7 -16 63 -30 123 -29 125 -51 155 -112 155 -45 0
-71 -14 -93 -51 -18 -29 -18 -33 15 -187 18 -86 36 -175 39 -197 3 -22 10 -56
15 -75 5 -19 12 -57 15 -85 3 -27 7 -57 10 -65 4 -17 11 -64 20 -135 3 -27 8
-59 10 -70 2 -11 6 -47 10 -80 3 -33 8 -78 10 -100 12 -116 15 -150 31 -370
13 -178 6 -666 -11 -775 -2 -14 -6 -50 -9 -82 -16 -151 -59 -317 -107 -408
-66 -125 -155 -179 -302 -183 l-80 -2 -1 255 -2 255 177 180 c131 134 179 188
184 212 9 43 -18 98 -56 113 -55 23 -87 7 -196 -103 -57 -56 -103 -97 -104
-92 0 6 -2 207 -2 447 l-2 438 -28 27 c-39 40 -105 40 -144 0 -27 -27 -28 -31
-31 -154 l-4 -126 -83 83 c-79 79 -86 83 -128 84 -35 1 -51 -5 -71 -23 -33
-31 -42 -80 -23 -117 9 -16 81 -94 161 -174 l146 -145 0 -584 0 -583 -77 5
c-97 8 -139 20 -191 55 -111 75 -191 265 -217 517 -3 33 -8 69 -10 80 -24 115
-24 760 0 980 3 22 7 72 10 110 6 77 11 120 26 240 6 44 13 96 15 115 10 81
48 295 90 509 20 99 105 413 146 536 88 263 194 474 273 544 33 29 37 30 58
16 13 -8 32 -25 43 -37z m1393 -978 c35 -6 71 -15 80 -19 127 -59 162 -82 232
-152 61 -59 85 -93 117 -160 22 -46 46 -111 53 -144 9 -44 13 -236 13 -730 l2
-670 -34 -53 c-100 -159 -192 -403 -232 -612 -12 -63 -23 -124 -26 -136 -2
-14 -22 -29 -61 -47 -57 -25 -127 -47 -149 -47 -9 0 -12 83 -12 297 l0 298
103 105 c56 58 108 115 114 127 20 40 13 73 -24 110 -32 32 -40 35 -77 30 -29
-4 -51 -16 -78 -42 l-38 -37 0 327 c0 309 -1 329 -19 354 -27 36 -79 52 -117
37 -53 -21 -67 -52 -68 -149 0 -48 -4 -87 -7 -87 -4 0 -29 23 -56 51 -64 65
-96 80 -143 66 -38 -12 -72 -57 -72 -95 0 -40 26 -74 153 -201 l125 -123 0
-535 0 -534 -36 6 c-152 24 -331 164 -407 319 -32 63 -36 80 -30 115 4 22 7
43 6 46 0 2 4 18 9 35 5 17 12 61 16 98 3 37 8 69 9 72 2 3 7 57 12 120 15
220 8 796 -12 965 -2 17 -6 62 -10 100 -3 39 -8 81 -10 95 -2 14 -6 50 -10 81
-3 31 -7 65 -9 75 -30 156 -26 206 19 299 31 62 58 99 125 165 117 117 235
176 375 187 39 3 71 7 73 8 2 2 11 1 20 0 9 -2 46 -9 81 -15z m-2582 -353
c131 -32 259 -83 347 -139 33 -21 35 -26 30 -61 -6 -41 -8 -55 -18 -142 -4
-33 -9 -73 -11 -90 -2 -16 -7 -61 -10 -100 -3 -38 -8 -81 -10 -95 -13 -81 -20
-295 -20 -580 1 -307 4 -384 20 -540 l7 -65 -43 -24 c-24 -12 -65 -31 -91 -42
l-48 -19 -1 23 c0 12 -2 33 -5 47 -28 176 -59 303 -107 445 -38 113 -95 254
-110 272 -5 7 -10 72 -10 143 l0 131 121 123 c115 116 122 125 122 163 0 49
-29 89 -73 101 -43 12 -73 -1 -124 -51 -24 -22 -43 -36 -44 -29 0 7 -1 38 -1
70 -1 90 -37 132 -111 132 -36 -1 -56 -13 -80 -50 -13 -21 -16 -53 -16 -175 1
-226 6 -207 -43 -154 -170 183 -345 222 -515 113 -54 -34 -139 -114 -181 -168
-12 -16 -23 -27 -25 -25 -1 2 -16 33 -33 69 -35 73 -34 81 21 190 93 183 251
340 440 437 68 35 199 78 266 88 24 4 46 8 48 11 5 5 282 -3 308 -9z m3390
-162 c356 -163 542 -545 454 -935 -23 -102 -96 -245 -168 -329 -16 -20 -18
-19 -62 22 -87 82 -201 115 -288 84 l-43 -15 0 572 c-1 314 -3 588 -6 609 -6
37 -5 39 18 32 12 -4 55 -22 95 -40z m-5166 -10 c145 -52 332 -274 477 -570
47 -95 112 -244 112 -257 0 -4 -12 -33 -26 -65 -99 -219 -99 -218 -120 -285
-29 -94 9 -161 91 -161 51 0 78 31 121 142 68 176 173 381 221 429 7 7 13 17
13 21 0 17 130 141 168 160 52 26 82 26 133 1 147 -75 336 -385 443 -725 33
-104 71 -262 81 -335 3 -19 7 -51 10 -70 28 -194 23 -451 -11 -583 -55 -213
-149 -277 -426 -291 -47 -2 -58 1 -59 13 0 9 -1 80 -1 157 l0 142 176 177 c97
97 179 188 182 202 15 57 -45 137 -94 128 -9 -2 -25 -4 -35 -4 -10 -1 -58 -40
-106 -88 -48 -49 -96 -96 -107 -105 -19 -16 -19 -12 -17 240 1 207 -2 263 -13
288 -34 72 -144 72 -178 0 -13 -27 -15 -115 -15 -581 0 -303 -1 -555 -1 -562
0 -17 -184 -3 -263 21 -203 61 -276 291 -243 763 8 105 7 114 -13 142 -38 53
-129 51 -165 -4 -40 -62 -44 -491 -5 -665 31 -139 79 -231 166 -317 l72 -71
-72 -30 c-95 -40 -137 -46 -339 -57 l-118 -6 0 537 0 537 88 89 c92 94 108
124 91 175 -20 62 -97 85 -156 47 l-23 -14 0 155 0 155 -27 30 c-51 55 -152
39 -170 -29 -4 -14 -7 -225 -8 -468 l0 -442 -50 47 c-27 26 -56 55 -63 66 -8
10 -29 24 -47 32 -53 22 -104 4 -131 -47 -29 -57 -14 -82 144 -241 l147 -148
0 -240 0 -240 -120 5 c-189 8 -277 25 -373 71 -123 60 -219 215 -248 399 -3
22 -7 42 -9 45 -24 40 -24 590 0 680 2 8 7 37 10 64 3 27 7 51 9 55 2 3 7 30
10 60 4 29 8 57 11 61 2 4 7 22 10 41 3 19 17 79 32 134 149 580 460 1102 709
1190 51 18 72 18 125 0z m5269 -1398 c150 -148 287 -491 317 -792 17 -162 6
-319 -27 -408 -37 -99 -83 -128 -227 -142 l-53 -5 0 92 0 92 94 96 c52 53 98
108 101 123 16 61 -24 117 -88 124 -36 4 -48 1 -75 -22 l-32 -27 0 157 c0 95
-4 165 -11 178 -32 63 -111 77 -160 28 -16 -16 -29 -38 -30 -48 -1 -10 -2
-189 -4 -398 -1 -209 -3 -383 -4 -387 -1 -10 -107 0 -151 14 -120 38 -162 154
-155 423 4 168 30 312 85 475 96 282 262 509 350 479 15 -6 47 -29 70 -52z
m-3105 -489 c11 -52 56 -158 93 -221 70 -121 199 -215 330 -241 l57 -12 -45
-26 c-182 -107 -465 -129 -666 -52 -41 16 -42 17 -33 47 30 101 47 235 48 378
l1 76 98 41 c53 22 100 40 104 41 3 1 10 -14 13 -31z m1408 -231 c2 -6 25 -38
51 -69 l46 -57 0 -535 0 -536 -110 0 c-60 0 -110 3 -111 8 0 4 -1 246 -1 537
l-1 531 28 29 c15 17 39 47 53 68 26 39 37 45 45 24z m-332 -274 c0 -54 0
-815 -1 -880 l0 -43 -115 0 c-103 0 -115 2 -116 18 -5 88 -2 906 2 914 4 6 29
12 57 14 73 4 145 13 150 19 15 14 22 0 23 -42z m729 -23 c47 -16 95 -30 108
-30 13 0 32 -5 42 -10 18 -10 19 -29 18 -435 l0 -425 -128 0 c-94 0 -129 3
-132 13 -3 10 -2 883 1 910 1 9 -7 11 91 -23z m593 -62 c24 -297 179 -458 451
-467 28 -1 53 -4 56 -6 4 -2 6 -84 6 -182 l-1 -178 -365 0 -365 0 -1 428 c-1
303 2 427 10 428 31 2 71 11 123 28 32 11 63 19 69 20 7 1 13 -28 17 -71z
m-1763 -433 l0 -405 -207 2 -208 3 0 308 c0 170 2 312 5 317 3 4 34 15 70 24
94 24 206 71 275 115 33 22 61 40 63 40 1 1 2 -181 2 -404z m-920 274 c83 -30
158 -46 240 -53 25 -2 48 -4 53 -5 4 -1 7 -140 7 -311 l0 -309 -240 0 -240 0
0 310 0 311 48 44 c28 26 53 41 62 38 8 -4 40 -15 70 -25z m-389 -179 c0 -22
0 -132 0 -245 0 -113 0 -216 0 -230 l-1 -25 -130 0 -130 0 -1 28 c-2 81 0 484
3 487 1 1 52 6 112 9 60 3 112 8 114 11 17 17 32 1 33 -35z m-473 15 c2 -2 4
-331 3 -462 l-1 -53 -162 3 -163 2 -2 215 -1 215 51 47 52 47 110 -6 c61 -3
111 -6 113 -8z m-531 -341 l0 -173 -223 -1 -224 -1 0 155 0 154 88 1 c110 1
206 10 280 25 31 6 62 12 68 12 7 1 11 -54 11 -172z"/>
</g>
</svg>
